<?xml version="1.0" encoding="UTF-8"?>
<svg version="1.1" xmlns="http://www.w3.org/2000/svg" width="512" height="512">
<path d="M0 0 C168.96 0 337.92 0 512 0 C512 168.96 512 337.92 512 512 C343.04 512 174.08 512 0 512 C0 343.04 0 174.08 0 0 Z " fill="#64FE9F" transform="translate(0,0)"/>
<path d="M0 0 C4.99311976 2.9794051 10.01830171 5.90318962 15.04345703 8.828125 C16.02886475 9.40304688 17.01427246 9.97796875 18.02954102 10.5703125 C28.62675762 16.75094916 39.2558853 22.87609192 49.88623047 28.99951172 C56.3971696 32.75090524 62.90508897 36.50753494 69.41357422 40.26318359 C74.85431039 43.40244746 80.2957718 46.54043997 85.73876953 49.67578125 C101.23332345 58.60342 116.68871146 67.59635787 132.12744141 76.62011719 C143.41677489 83.2173447 154.71648721 89.79568466 166.04345703 96.328125 C167.1162793 96.94703613 168.18910156 97.56594727 169.29443359 98.20361328 C174.86774503 101.41706162 180.44514191 104.62318417 186.02783203 107.8203125 C229.5192519 132.75090572 229.5192519 132.75090572 234.77783203 149.875 C236.68995032 159.74153036 234.85406219 169.51169299 229.84814453 178.17578125 C228.40292225 180.22515382 226.87348754 182.05289165 225.16845703 183.890625 C224.41048828 184.72787109 224.41048828 184.72787109 223.63720703 185.58203125 C217.96687801 191.13637627 210.86218831 194.5584073 203.94189453 198.29296875 C199.51666021 200.68216721 195.17745225 203.19453075 190.85595703 205.765625 C184.60023984 209.47639606 178.30418901 213.10865132 171.98095703 216.703125 C164.77420156 220.80388334 157.61107613 224.97056357 150.48095703 229.203125 C141.35593833 234.61929668 132.17933178 239.94102389 122.98217773 245.23364258 C115.69628106 249.42783537 108.42630314 253.64809276 101.16845703 257.890625 C89.62130249 264.63787538 78.03943491 271.32401924 66.45068359 277.99951172 C61.02185765 281.12742646 55.59523696 284.25916231 50.16845703 287.390625 C43.64612428 291.15426419 37.12331941 294.91707122 30.59814453 298.67578125 C19.77481536 304.91190425 8.96024353 311.16254102 -1.83154297 317.453125 C-2.79205566 318.01265869 -3.75256836 318.57219238 -4.7421875 319.14868164 C-10.03404093 322.23753472 -15.29541261 325.3677991 -20.51806641 328.57250977 C-30.10592275 334.03524049 -40.0467981 335.66260017 -50.88623047 333.1953125 C-59.82119603 330.24999144 -67.6168933 324.81317879 -72.83154297 316.890625 C-75.57765659 311.13519198 -77.94928188 305.40145599 -77.97414398 298.9846983 C-77.98045192 297.96672403 -77.98675986 296.94874977 -77.99325895 295.89992779 C-77.99512095 294.77816814 -77.99698295 293.65640849 -77.99890137 292.50065613 C-78.00469475 291.31148993 -78.01048814 290.12232374 -78.01645708 288.8971222 C-78.031409 285.59025998 -78.0418255 282.28344047 -78.05022192 278.9765588 C-78.05822535 276.14137958 -78.06991622 273.30622039 -78.08163673 270.47105446 C-78.12355578 260.31276032 -78.15076015 250.15444261 -78.17529297 239.99609375 C-78.17825532 238.79291918 -78.17825532 238.79291918 -78.18127751 237.56543806 C-78.22045522 221.63104998 -78.2541488 205.69665402 -78.27635956 189.76223278 C-78.28132871 186.25823645 -78.28637304 182.75424024 -78.29150391 179.25024414 C-78.29277458 178.37936286 -78.29404525 177.50848159 -78.29535443 176.61120997 C-78.31668981 162.52048045 -78.36565913 148.42998499 -78.42574805 134.33937307 C-78.486968 119.86375409 -78.52156193 105.38825556 -78.53083277 90.91250879 C-78.53673239 82.78868269 -78.55437428 74.6652525 -78.60221863 66.5415554 C-78.64295321 59.61870686 -78.65964686 52.69631886 -78.64556581 45.77335586 C-78.63912705 42.2452338 -78.64372537 38.71809115 -78.67943954 35.1901226 C-78.82218807 18.48487026 -78.73611198 6.09424635 -67.64404297 -7.109375 C-45.02719866 -27.27009142 -21.52091963 -12.88309349 0 0 Z " fill="#000100" transform="translate(205.83154296875,98.109375)"/>
<path d="M0 0 C8.87301406 3.83918675 16.74501379 9.68036739 24 16 C24.83144531 16.71027344 25.66289062 17.42054688 26.51953125 18.15234375 C38.76264107 28.85331071 46.6703087 39.96983759 53.6875 54.5 C54.25887695 55.67453735 54.25887695 55.67453735 54.84179688 56.87280273 C58.47381985 64.56683024 61.42697379 72.26456411 61.4375 80.875 C61.45683594 81.94492188 61.47617187 83.01484375 61.49609375 84.1171875 C60.88374739 87.67554666 59.8292255 88.82210699 57 91 C53.8125 91.875 53.8125 91.875 50 91 C46.60814551 87.98635229 43.83363403 84.5331716 41 81 C31.88453032 69.76311177 31.88453032 69.76311177 20 62 C17.37429296 61.74930087 17.37429296 61.74930087 15 62 C12.98753428 64.01246572 13.8355727 68.11697155 13.82641602 70.87768555 C13.8163855 72.1170134 13.8163855 72.1170134 13.80615234 73.38137817 C13.79206078 75.18419076 13.78017996 76.98702162 13.77020454 78.78986168 C13.75380461 81.65447316 13.7305588 84.51895286 13.70530701 87.38349915 C13.63456277 95.53172202 13.57485578 103.68000362 13.52319336 111.82836914 C13.49113 116.80927387 13.44976976 121.79003529 13.40299797 126.77082253 C13.38711727 128.65995472 13.37473259 130.54912 13.36609077 132.43829918 C13.26919722 153.34721085 11.86251793 173.90514502 -2.95703125 190.14453125 C-11.63627349 198.5735611 -22.49892624 202.37842636 -34.4375 202.28515625 C-47.54294526 201.23614583 -57.03480444 194.07849977 -66 185 C-73.37067169 176.00642812 -75.99229683 168.65555012 -75 157 C-73.875 153.3125 -73.875 153.3125 -72 150 C-71.5978125 149.28199219 -71.195625 148.56398438 -70.78125 147.82421875 C-65.72000494 139.45910538 -58.62640882 133.40710875 -49 131 C-45.23929604 130.61370838 -41.52709036 130.62513061 -37.75 130.6875 C-36.78964844 130.68427734 -35.82929688 130.68105469 -34.83984375 130.67773438 C-29.665623 130.71583105 -24.73055814 131.12983031 -19.62988281 132.01879883 C-18.56956848 132.20170975 -17.50925415 132.38462067 -16.41680908 132.57307434 C-15.22048859 132.78440254 -15.22048859 132.78440254 -14 133 C-14.00368717 132.3552387 -14.00737434 131.71047739 -14.01117325 131.04617786 C-14.09952249 115.35547905 -14.1657086 99.66486678 -14.20724869 83.9739809 C-14.22787129 76.38596474 -14.25598591 68.79811465 -14.30175781 61.21020508 C-14.34163508 54.59633386 -14.36743502 47.98258292 -14.37635398 41.36859483 C-14.38156731 37.86669061 -14.39381359 34.36513047 -14.42292023 30.86333656 C-14.45515465 26.95350333 -14.45595883 23.04400626 -14.45410156 19.1340332 C-14.47567322 17.39370819 -14.47567322 17.39370819 -14.49768066 15.6182251 C-14.4572809 7.77834104 -14.4572809 7.77834104 -12.15911865 3.86662292 C-7.90801754 0.19141833 -5.60099118 -0.51503367 0 0 Z " fill="#63FC9E" transform="translate(242,159)"/>
</svg>
